HIERARCHY
ROOT Hips
{
	OFFSET 0.000000 0.000000 0.000000
	CHANNELS 6 Xposition Yposition Zposition Xrotation Yrotation Zrotation
	JOINT LeftUpLeg_virtual
	{
		OFFSET 0.000000 0.000000 0.000000
		CHANNELS 3 Xrotation Yrotation Zrotation
		JOINT LeftUpLeg
		{
			OFFSET 10.205400 -3.823500 0.155100
			CHANNELS 3 Xrotation Yrotation Zrotation
			JOINT LeftLeg
			{
				OFFSET 0.708757 -12.982077 0.567790
				CHANNELS 3 Xrotation Yrotation Zrotation
				JOINT LeftFoot
				{
					OFFSET -0.708756 -10.717838 -2.184338
					CHANNELS 3 Xrotation Yrotation Zrotation
					JOINT LeftToeBase
					{
						OFFSET 0.108149 -7.191104 7.560241
						CHANNELS 3 Xrotation Yrotation Zrotation
						JOINT LeftToe_End
						{
							OFFSET 0.070230 0.081724 4.490308
							CHANNELS 3 Xrotation Yrotation Zrotation
							End Site
							{
								OFFSET 0 0 0
							}
						}
					}
				}
			}
		}
	}
	JOINT RightUpLeg_virtual
	{
		OFFSET 0.000000 0.000000 0.000000
		CHANNELS 3 Xrotation Yrotation Zrotation
		JOINT RightUpLeg
		{
			OFFSET -10.205400 -3.823500 0.005500
			CHANNELS 3 Xrotation Yrotation Zrotation
			JOINT RightLeg
			{
				OFFSET -0.708756 -12.982134 0.610632
				CHANNELS 3 Xrotation Yrotation Zrotation
				JOINT RightFoot
				{
					OFFSET 0.708754 -10.717769 -1.945823
					CHANNELS 3 Xrotation Yrotation Zrotation
					JOINT RightToeBase
					{
						OFFSET -0.108140 -7.191069 7.372968
						CHANNELS 3 Xrotation Yrotation Zrotation
						JOINT RightToe_End
						{
							OFFSET -0.070227 0.081735 4.479403
							CHANNELS 3 Xrotation Yrotation Zrotation
							End Site
							{
								OFFSET 0 0 0
							}
						}
					}
				}
			}
		}
	}
	JOINT Spine_virtual
	{
		OFFSET 0.000000 0.000000 0.000000
		CHANNELS 3 Xrotation Yrotation Zrotation
		JOINT Spine
		{
			OFFSET 0.000000 6.876099 0.125700
			CHANNELS 3 Xrotation Yrotation Zrotation
			JOINT Spine1
			{
				OFFSET 0.000000 5.730043 0.104720
				CHANNELS 3 Xrotation Yrotation Zrotation
				JOINT Spine1_split
				{
					OFFSET 0.000000 5.730043 0.104720
					CHANNELS 3 Xrotation Yrotation Zrotation
					JOINT Spine2
					{
						OFFSET 0.000000 5.730043 0.104720
						CHANNELS 3 Xrotation Yrotation Zrotation
						JOINT Neck_virtual
						{
							OFFSET 0.000000 0.000000 0.000000
							CHANNELS 3 Xrotation Yrotation Zrotation
							JOINT Neck
							{
								OFFSET 0.000000 10.314075 0.188496
								CHANNELS 3 Xrotation Yrotation Zrotation
								JOINT Head
								{
									OFFSET 0.000000 7.643700 -2.377400
									CHANNELS 3 Xrotation Yrotation Zrotation
									JOINT HeadTop_End
									{
										OFFSET 0.000000 43.788605 -13.619600
										CHANNELS 3 Xrotation Yrotation Zrotation
										End Site
										{
											OFFSET 0 0 0
										}
									}
								}
							}
						}
						JOINT LeftShoulder_virtual
						{
							OFFSET 0.000000 0.000000 0.000000
							CHANNELS 3 Xrotation Yrotation Zrotation
							JOINT LeftShoulder
							{
								OFFSET 2.196100 4.412489 0.087492
								CHANNELS 3 Xrotation Yrotation Zrotation
								JOINT LeftShoulder_split
								{
									OFFSET 2.196100 4.412489 0.087492
									CHANNELS 3 Xrotation Yrotation Zrotation
									JOINT LeftArm
									{
										OFFSET 8.771219 -2.981674 -0.026999
										CHANNELS 3 Xrotation Yrotation Zrotation
										JOINT LeftForeArm
										{
											OFFSET 8.512804 0.000000 -0.000000
											CHANNELS 3 Xrotation Yrotation Zrotation
											JOINT LeftHand
											{
												OFFSET 18.484802 0.000000 -0.000000
												CHANNELS 3 Xrotation Yrotation Zrotation
												End Site
												{
													OFFSET 0 0 0
												}
											}
										}
									}
								}
							}
						}
						JOINT RightShoulder_virtual
						{
							OFFSET 0.000000 0.000000 0.000000
							CHANNELS 3 Xrotation Yrotation Zrotation
							JOINT RightShoulder
							{
								OFFSET -2.196100 4.412496 0.070690
								CHANNELS 3 Xrotation Yrotation Zrotation
								JOINT RightShoulder_split
								{
									OFFSET -2.196100 4.412496 0.070690
									CHANNELS 3 Xrotation Yrotation Zrotation
									JOINT RightArm
									{
										OFFSET -8.771282 -2.981682 -0.094208
										CHANNELS 3 Xrotation Yrotation Zrotation
										JOINT RightForeArm
										{
											OFFSET -8.494598 0.000000 0.000000
											CHANNELS 3 Xrotation Yrotation Zrotation
											JOINT RightHand
											{
												OFFSET -18.483803 0.000000 0.000001
												CHANNELS 3 Xrotation Yrotation Zrotation
												End Site
												{
													OFFSET 0 0 0
												}
											}
										}
									}
								}
							}
						}
					}
				}
			}
		}
	}
}
MOTION
Frames: 8
Frame Time: 0.03333333
1.173680 32.091774 2.788399 0.000000 0.000000 0.000000 23.011505 13.406939 2.161813 -25.635553 13.802788 13.177315 27.916747 1.903185 -5.278313 -9.786889 28.701397 -14.798751 -6.210465 -0.424812 -1.164130 0.000000 0.000000 0.000000 24.337827 10.942560 2.700836 -63.068649 -7.787667 -14.741177 51.124147 6.466870 -4.351333 -10.485494 -9.492671 6.040965 1.563498 0.268489 -0.581984 0.000000 0.000000 0.000000 21.967516 12.149683 3.639798 12.037716 -0.673648 1.363534 8.560379 2.171311 -2.985050 0.323614 -0.800943 0.715461 0.000000 0.000000 0.000000 9.459108 2.150814 -3.322852 -7.503023 5.281098 -0.109032 -22.845473 -1.875449 -9.306401 0.000000 0.000000 0.000000 10.532196 2.046260 -2.774960 1.448569 4.384378 -8.689052 -0.289885 -2.422697 -1.789026 -29.179804 -1.180502 -58.512462 1.604569 -41.224221 -0.098557 0.000000 0.000000 0.000000 9.329770 1.609039 -3.189431 4.399875 23.621236 3.642825 -0.738738 5.099622 -0.245114 -22.247521 -14.765722 62.735909 -0.188153 36.704463 0.667687 0.000000 0.000000 0.000000 
1.258181 32.534470 3.593830 0.000000 0.000000 0.000000 22.378263 13.000269 2.456961 -26.831881 12.344889 12.228508 25.563159 3.430830 -5.070271 -8.680592 28.826383 -14.124438 -4.850115 -0.344513 -1.474821 0.000000 0.000000 0.000000 24.760636 10.123035 2.909695 -60.266966 -8.392828 -15.372213 49.132286 6.098987 -4.498222 -9.784779 -10.135258 5.429771 0.133253 0.262012 -0.273488 0.000000 0.000000 0.000000 22.619223 11.949920 3.439957 11.665934 -0.060756 1.822806 8.564382 2.396512 -2.835886 0.327717 0.224025 1.227036 0.000000 0.000000 0.000000 9.365938 2.315036 -3.237552 -7.345879 4.814706 -0.310374 -23.042632 -1.899727 -9.554077 0.000000 0.000000 0.000000 10.447562 2.203231 -2.707941 1.497417 5.081847 -8.204855 -1.320227 -0.759763 -1.765435 -27.577664 1.177102 -57.200649 0.962801 -39.815307 -0.418252 0.000000 0.000000 0.000000 9.432230 1.843924 -3.115765 4.624945 23.380958 3.577253 -1.492919 4.931713 -1.373251 -22.881509 -16.967851 61.901793 -0.237213 36.369262 0.776478 0.000000 0.000000 0.000000 
1.370821 33.102856 4.732312 0.000000 0.000000 0.000000 21.426397 14.212458 2.772570 -29.619074 10.774877 10.594066 23.415700 4.715559 -4.964102 -5.409329 28.453673 -15.288516 -2.131094 -0.360887 -1.745481 0.000000 0.000000 0.000000 24.334338 10.801090 3.098141 -54.848663 -10.252916 -16.806912 46.436752 5.802762 -4.416271 -11.464830 -11.189368 4.095920 -1.943069 0.385288 0.006679 0.000000 0.000000 0.000000 23.150117 12.253959 3.395372 11.492198 1.017558 2.485249 8.575659 2.919222 -2.361135 0.403923 0.378642 1.031502 0.000000 0.000000 0.000000 9.392064 2.769874 -2.742789 -7.295157 4.144753 -0.996492 -23.994711 -1.966380 -10.445813 0.000000 0.000000 0.000000 10.257284 2.662789 -2.319863 1.480471 5.126842 -8.019683 -1.696909 0.419362 -1.440401 -23.954711 4.136681 -55.023300 0.426833 -39.386989 -0.654805 0.000000 0.000000 0.000000 9.495857 2.370677 -2.661910 4.916013 22.891092 2.908917 -2.190288 4.821916 -2.098815 -24.921561 -19.262967 59.758732 -0.517344 37.112434 1.043162 0.000000 0.000000 0.000000 
1.491078 33.485012 6.113305 0.000000 0.000000 0.000000 20.221173 16.079966 3.106306 -33.395541 9.683263 8.551679 22.526408 5.553464 -4.949294 -1.254575 27.367069 -17.511635 -0.566256 -0.523332 -1.271631 0.000000 0.000000 0.000000 23.117245 12.472112 3.313364 -48.293983 -13.080336 -18.426783 44.061485 5.873646 -3.958437 -14.965709 -12.363781 2.816221 -3.910182 0.680959 0.117879 0.000000 0.000000 0.000000 23.026987 13.410467 3.410630 11.541631 2.390321 3.187169 8.540063 3.638602 -1.681561 0.438452 -0.046462 0.704408 0.000000 0.000000 0.000000 9.535923 3.437288 -1.947955 -7.430955 3.308460 -1.918557 -25.476136 -2.287114 -11.716142 0.000000 0.000000 0.000000 9.958360 3.369824 -1.670329 1.465670 4.450478 -7.954770 -1.348183 0.672011 -0.989559 -19.393373 6.693916 -53.063695 0.183673 -40.046062 -0.738320 0.000000 0.000000 0.000000 9.516872 3.109477 -1.930165 5.168975 22.399291 1.795208 -2.997656 4.803130 -2.350697 -28.131539 -20.430658 56.586191 -0.852382 38.510123 1.306521 0.000000 0.000000 0.000000 
1.565235 33.490078 7.634355 0.000000 0.000000 0.000000 18.863277 17.966107 3.416697 -37.371008 9.557075 6.519401 23.322736 6.260672 -5.055113 0.747504 25.913166 -18.196073 -1.496690 -0.770171 -0.000322 0.000000 0.000000 0.000000 21.806195 14.454518 3.462629 -41.585600 -16.549690 -19.328998 42.464372 6.430613 -3.340532 -20.287711 -13.576257 2.164843 -5.493493 1.098761 -0.129932 0.000000 0.000000 0.000000 22.144293 15.328799 3.309904 11.747624 3.940235 3.864288 8.437940 4.451494 -0.893903 0.134816 -0.076887 0.325307 0.000000 0.000000 0.000000 9.695049 4.200257 -1.013198 -7.797446 2.300888 -2.806855 -27.111082 -3.081559 -12.958170 0.000000 0.000000 0.000000 9.572315 4.211375 -0.861404 1.494248 3.324177 -7.899600 -0.980804 0.317864 -0.435095 -14.707631 8.299772 -51.962040 0.324169 -41.454761 -0.596909 0.000000 0.000000 0.000000 9.462921 3.952397 -1.057636 5.280337 22.115849 0.621926 -3.495539 4.775559 -2.489072 -32.074930 -19.514429 52.845976 -1.038593 40.095946 1.388211 0.000000 0.000000 0.000000 
1.598376 33.060730 9.232311 0.000000 0.000000 0.000000 17.523644 19.623936 3.509336 -40.859325 10.530745 5.118634 25.946258 6.852071 -5.375605 -0.685394 24.520273 -16.338134 -3.630687 -1.035598 1.083254 0.000000 0.000000 0.000000 20.525938 16.724237 3.234171 -34.756886 -20.051176 -18.865170 41.779277 7.344271 -2.926367 -27.472414 -14.919640 1.966479 -6.117832 1.555714 -0.705106 0.000000 0.000000 0.000000 20.564643 17.219303 3.027528 11.964152 5.537696 4.440379 8.211670 5.239781 -0.108883 0.521351 0.233987 -0.070270 0.000000 0.000000 0.000000 9.705897 4.924066 -0.132937 -8.362650 1.201356 -3.438483 -28.565007 -4.515206 -13.702658 0.000000 0.000000 0.000000 9.097744 5.048331 -0.012236 1.560115 1.960181 -7.585572 -0.793886 -0.457490 0.038642 -10.237088 8.600985 -51.617922 0.693445 -43.423259 -0.272339 0.000000 0.000000 0.000000 9.329521 4.773781 -0.227744 5.210683 22.084478 -0.359815 -3.561259 4.959714 -2.652857 -35.720008 -15.943654 49.471508 -0.877020 41.577458 1.134659 0.000000 0.000000 0.000000 
1.543938 32.395123 10.791136 0.000000 0.000000 0.000000 16.278555 20.990594 3.198464 -43.627813 11.666206 4.565373 29.820640 7.266527 -5.837082 -4.217477 23.174161 -13.046991 -5.127239 -1.111262 1.304835 0.000000 0.000000 0.000000 19.396568 19.038153 2.518276 -27.265938 -22.999745 -16.794943 41.868295 8.135484 -2.765956 -35.461253 -16.438896 1.538939 -5.166906 1.943602 -1.357375 0.000000 0.000000 0.000000 18.601954 18.856035 2.426229 11.936332 7.028437 4.882602 7.859416 5.896693 0.542999 1.216638 1.408258 -0.362213 0.000000 0.000000 0.000000 9.442310 5.503236 0.546644 -8.863682 0.059993 -3.678638 -29.480107 -6.608625 -13.581245 0.000000 0.000000 0.000000 8.538459 5.744044 0.677243 1.662918 0.731271 -6.954224 -0.546417 -1.649607 0.433684 -5.801463 8.050788 -51.434480 1.122959 -45.596683 0.114285 0.000000 0.000000 0.000000 9.072789 5.430749 0.392825 4.965669 21.958930 -1.081703 -3.488332 5.174425 -2.735879 -38.145756 -10.012514 46.893815 -0.367710 43.346611 0.550549 0.000000 0.000000 0.000000 
1.432839 31.752422 12.007231 0.000000 0.000000 0.000000 15.174225 21.994633 2.457746 -45.063447 12.127966 5.017951 33.786128 7.283433 -6.397546 -7.282917 21.762432 -9.855187 -5.940210 -0.895131 0.990353 0.000000 0.000000 0.000000 18.218387 21.035736 1.564624 -19.589553 -24.770542 -13.482174 42.277235 8.573411 -2.796285 -42.196574 -17.935319 1.021339 -3.211506 2.082620 -1.740397 0.000000 0.000000 0.000000 16.616488 20.323742 1.627945 11.438879 8.208092 5.121356 7.395502 6.285994 0.919711 1.319199 2.891986 -0.177010 0.000000 0.000000 0.000000 8.841411 5.837285 0.904431 -9.019678 -1.003667 -3.621928 -29.632496 -9.177746 -12.360268 0.000000 0.000000 0.000000 7.870833 6.183350 1.047330 1.759603 -0.141914 -6.054993 -0.555773 -2.991985 0.551005 -1.154444 7.648398 -50.594903 1.293048 -48.109882 0.429846 0.000000 0.000000 0.000000 8.561334 5.819710 0.726788 4.574323 21.417614 -1.557446 -2.999266 5.313839 -2.677606 -38.918155 -2.947461 45.166077 0.360036 45.969191 -0.260826 0.000000 0.000000 0.000000 
